<svg version="1.1" id="Layer_1" xmlns="http://www.w3.org/2000/svg" xmlns:xlink="http://www.w3.org/1999/xlink" x="0px" y="0px"
	 viewBox="0 0 7 7" enable-background="new 0 0 7 7" xml:space="preserve">
<path d="M4.971,3.5L6.85,1.621c0.169-0.169,0.199-0.417,0.07-0.566C6.631,0.687,6.313,0.369,5.944,0.08
	C5.796-0.049,5.547-0.019,5.379,0.15L3.5,1.949L1.611,0.15C1.452-0.019,1.204-0.049,1.044,0.08C0.687,0.369,0.369,0.687,0.081,1.055
	c-0.129,0.149-0.099,0.397,0.07,0.566L2.029,3.5L0.141,5.388c-0.159,0.16-0.189,0.408-0.06,0.566
	c0.289,0.358,0.606,0.677,0.964,0.965c0.16,0.13,0.408,0.099,0.567-0.06L3.5,4.971L5.379,6.86c0.168,0.158,0.417,0.189,0.565,0.06
	C6.313,6.631,6.631,6.313,6.92,5.945c0.129-0.148,0.099-0.396-0.07-0.557L4.971,3.5z"/>
</svg>
